<svg width="27" height="27" viewBox="0 0 27 27" fill="none" xmlns="http://www.w3.org/2000/svg">
<path fill-rule="evenodd" clip-rule="evenodd" d="M20.3187 7.49576C20.1517 7.47594 19.9814 7.46574 19.8083 7.46574H18.2649L15.8702 4.2727C15.601 3.91372 15.6737 3.40444 16.0327 3.1352C16.3917 2.86597 16.901 2.93872 17.1702 3.2977L20.3187 7.49576ZM8.27543 7.46574H6.73209C6.55902 7.46574 6.38872 7.47594 6.22168 7.49575L9.37021 3.2977C9.63944 2.93872 10.1487 2.86597 10.5077 3.1352C10.8667 3.40444 10.9394 3.91372 10.6702 4.2727L8.27543 7.46574Z" fill="white"/>
<path opacity="0.4" d="M19.8089 7.46484H6.73276C4.31099 7.46484 2.43258 9.46252 2.43751 11.7982H24.1042C24.109 9.46252 22.2306 7.46484 19.8089 7.46484Z" fill="white"/>
<path fill-rule="evenodd" clip-rule="evenodd" d="M22.2429 21.3413C21.8314 23.3548 20.0748 24.7993 18.0377 24.7993H8.5039C6.46684 24.7993 4.71016 23.3548 4.29868 21.3413L2.52751 12.6746C2.46778 12.3823 2.43858 12.092 2.4375 11.8066H24.1041C24.103 12.092 24.0738 12.3823 24.0141 12.6746L22.2429 21.3413ZM8.125 16.1326C8.125 15.6839 8.48877 15.3201 8.9375 15.3201H17.6042C18.0529 15.3201 18.4167 15.6839 18.4167 16.1326C18.4167 16.5813 18.0529 16.9451 17.6042 16.9451H8.9375C8.48877 16.9451 8.125 16.5813 8.125 16.1326ZM10.0208 19.6529C9.57211 19.6529 9.20833 20.0167 9.20833 20.4654C9.20833 20.9141 9.57211 21.2779 10.0208 21.2779H16.5208C16.9696 21.2779 17.3333 20.9141 17.3333 20.4654C17.3333 20.0167 16.9696 19.6529 16.5208 19.6529H10.0208Z" fill="white"/>
</svg>
