<svg width="27" height="27" viewBox="0 0 27 27" fill="none" xmlns="http://www.w3.org/2000/svg">
<path opacity="0.4" d="M23.0195 20.4321V11.9643C23.0195 10.6524 22.435 9.40997 21.4271 8.58016L16.0105 4.11989C14.4154 2.80638 12.1237 2.8064 10.5285 4.11989L5.11188 8.58016C4.10414 9.40997 3.51953 10.6524 3.51953 11.9643V20.4321C3.51953 22.8453 5.45963 24.8014 7.85286 24.8014H18.6862C21.0794 24.8014 23.0195 22.8453 23.0195 20.4321Z" fill="#AEAEB2"/>
<path fill-rule="evenodd" clip-rule="evenodd" d="M8.18778 17.9856C8.36303 17.5725 8.83998 17.3797 9.25308 17.555C10.9242 18.2639 12.1449 18.5767 13.3109 18.5738C14.4762 18.5708 15.6674 18.2526 17.2807 17.5568C17.6927 17.3792 18.1708 17.5692 18.3485 17.9812C18.5262 18.3933 18.3362 18.8714 17.9241 19.049C16.2185 19.7845 14.7944 20.1951 13.315 20.1988C11.8363 20.2024 10.3832 19.7996 8.61844 19.0509C8.20534 18.8757 8.01253 18.3987 8.18778 17.9856Z" fill="#AEAEB2"/>
</svg>
