<svg width="25" height="25" viewBox="0 0 25 25" fill="none" xmlns="http://www.w3.org/2000/svg">
<path opacity="0.4" d="M2.27051 4.96875C2.27051 3.86418 3.16594 2.96875 4.27051 2.96875H9.27051C10.3751 2.96875 11.2705 3.86418 11.2705 4.96875V9.96875C11.2705 11.0733 10.3751 11.9688 9.27051 11.9688H4.27051C3.16594 11.9688 2.27051 11.0733 2.27051 9.96875V4.96875Z" fill="#AEAEB2"/>
<path opacity="0.4" d="M13.2705 4.96875C13.2705 3.86418 14.1659 2.96875 15.2705 2.96875H20.2705C21.3751 2.96875 22.2705 3.86418 22.2705 4.96875V9.96875C22.2705 11.0733 21.3751 11.9688 20.2705 11.9688H15.2705C14.1659 11.9688 13.2705 11.0733 13.2705 9.96875V4.96875Z" fill="#AEAEB2"/>
<path opacity="0.4" d="M2.27051 15.9688C2.27051 14.8642 3.16594 13.9688 4.27051 13.9688H9.27051C10.3751 13.9688 11.2705 14.8642 11.2705 15.9688V20.9688C11.2705 22.0733 10.3751 22.9688 9.27051 22.9688H4.27051C3.16594 22.9688 2.27051 22.0733 2.27051 20.9688V15.9688Z" fill="#AEAEB2"/>
<path d="M13.2705 15.9688C13.2705 14.8642 14.1659 13.9688 15.2705 13.9688H20.2705C21.3751 13.9688 22.2705 14.8642 22.2705 15.9688V20.9688C22.2705 22.0733 21.3751 22.9688 20.2705 22.9688H15.2705C14.1659 22.9688 13.2705 22.0733 13.2705 20.9688V15.9688Z" fill="#AEAEB2"/>
</svg>
